:SAMPLES-PER-SECOND 30
:FULLY-SPECIFIED
:DEGREES
684
root  -34.2089 36.8014 29.7492 176.016 -10.348 178.788
RightUpLeg  0.318546 -1.35778 -30.9216
RightLeg  16.3312 -3.32942 -2.19332
RightFoot  8.56059 -2.01752 11.5926
RightToes  -6.98493e-010 0 -3.6325e-017
Spine  13.9837 -1.09161 3.77635
Spine1  5.52513 -0.289014 -2.62976
HEad  -8.40369 21.2716 -9.33457
LeftShoulder1  0.160703 3.02229 -27.2124
LeftArm  -9.61703 -0.251275 -34.1364
LeftForeArm  44.9853 -77.7673 -62.6004
LeftHand  -0.0454065 1.10005 1.08357
RightShoulder  -0.515637 -5.03385 26.9312
RightArm  -13.6513 -7.61238 39.5307
RightForeArm  93.0628 77.1899 119.026
RightHand  -0.00615649 1.41401 -0.235542
LeftUpLeg  -20.4027 15.6486 13.4123
LeftLeg  38.4781 -3.90327 -2.95144
LeftFoot  -9.93058 0.150857 -7.55211
LeftToes  7.91257e-010 -1.64976e-010 -3.02228e-011
685
root  -35.213 37.1559 29.833 176.997 -9.04187 179.201
RightUpLeg  -3.18748 -1.50709 -29.8097
RightLeg  19.6651 -0.640542 -0.344497
RightFoot  8.08875 -1.79709 10.8108
RightToes  -6.98493e-010 0 -3.6325e-017
Spine  13.5539 -0.465696 2.89976
Spine1  6.09176 0.150363 -2.23371
HEad  -8.95042 25.9757 -10.3126
LeftShoulder1  0.0671517 3.30345 -27.3416
LeftArm  -9.27002 -0.552574 -34.7103
LeftForeArm  43.4544 -77.6015 -61.1782
LeftHand  -0.0537735 0.861416 1.27561
RightShoulder  -0.456032 -4.83602 27.3168
RightArm  -13.75 -6.89179 38.8523
RightForeArm  87.3467 77.8452 112.918
RightHand  -0.00296101 1.22986 -0.166105
LeftUpLeg  -20.6648 14.5749 11.8533
LeftLeg  37.8018 -1.64678 -0.995241
LeftFoot  -10.0659 0.132213 -6.48081
LeftToes  7.91257e-010 -1.64976e-010 -3.02228e-011
686
root  -35.9764 37.5605 29.9073 177.126 -7.71983 179.72
RightUpLeg  -6.61915 -1.74267 -26.7832
RightLeg  25.6272 2.38813 0.995886
RightFoot  4.36541 -1.47881 10.8695
RightToes  -6.98493e-010 0 -3.6325e-017
Spine  14.4173 0.0975658 2.38937
Spine1  5.97417 0.728791 -2.70425
HEad  -10.0359 30.3449 -11.4981
LeftShoulder1  0.126712 3.1253 -27.3031
LeftArm  -9.37675 -0.429593 -35.1519
LeftForeArm  42.7408 -77.4846 -60.0127
LeftHand  -0.0517052 1.10638 1.25477
RightShoulder  -0.385387 -4.64273 26.8463
RightArm  -13.9584 -7.3112 39.7384
RightForeArm  84.1305 78.1343 109.38
RightHand  -0.0317975 1.60589 -0.676593
LeftUpLeg  -19.5443 14.1882 11.0705
LeftLeg  36.1115 -0.0304172 0.344936
LeftFoot  -9.75595 0.136362 -5.63456
LeftToes  7.91257e-010 -1.64976e-010 -3.02228e-011
687
root  -36.6532 38.0457 29.9368 177.235 -7.60863 -179.69
RightUpLeg  -8.9562 -1.87877 -22.8692
RightLeg  31.014 1.7488 0.885652
RightFoot  0.691858 -0.966894 9.2008
RightToes  -6.98493e-010 0 -3.6325e-017
Spine  15.2707 0.0465066 1.42504
Spine1  5.57645 0.47468 -2.47435
HEad  -11.1159 34.5681 -12.2706
LeftShoulder1  0.0991484 3.2053 -27.1365
LeftArm  -9.56781 0.085323 -34.9922
LeftForeArm  43.1757 -77.5362 -60.4325
LeftHand  -0.0582419 0.941615 1.40796
RightShoulder  -0.402085 -4.67474 27.2769
RightArm  -13.2298 -7.21142 39.5541
RightForeArm  79.6197 78.3644 105.381
RightHand  -0.0467747 1.80698 -0.917319
LeftUpLeg  -18.2128 12.6804 10.3232
LeftLeg  33.3834 1.59068 1.49733
LeftFoot  -8.88323 0.159215 -4.96494
LeftToes  7.91257e-010 -1.64976e-010 -3.02228e-011
688
root  -37.3134 38.5881 29.9096 177.892 -8.08136 -179.1
RightUpLeg  -11.055 -2.9785 -18.4311
RightLeg  34.4202 0.0173163 -0.23645
RightFoot  -2.36963 -0.594089 7.34657
RightToes  -6.98493e-010 0 -3.6325e-017
Spine  15.1133 -0.303215 1.21733
Spine1  5.5887 0.130634 -2.36497
HEad  -12.0717 37.7543 -12.7689
LeftShoulder1  0.119011 3.13667 -26.3733
LeftArm  -9.86935 0.570045 -35.4023
LeftForeArm  44.3288 -77.6515 -61.2882
LeftHand  -0.040893 1.21901 0.964186
RightShoulder  -0.519481 -4.98894 28.1586
RightArm  -12.1657 -7.19697 38.7579
RightForeArm  77.8274 78.4204 103.982
RightHand  -0.0578442 1.62878 -1.10078
LeftUpLeg  -17.0914 11.5293 9.47619
LeftLeg  29.7517 2.52966 1.92102
LeftFoot  -7.71885 0.179406 -4.20066
LeftToes  7.91257e-010 -1.64976e-010 -3.02228e-011
